<?xml version="1.0" encoding="UTF-8"?>
<svg xmlns="http://www.w3.org/2000/svg" xmlns:xlink="http://www.w3.org/1999/xlink" width="13px" height="16px" viewBox="0 0 13 15" version="1.1">
<defs>
<filter id="alpha" filterUnits="objectBoundingBox" x="0%" y="0%" width="100%" height="100%">
  <feColorMatrix type="matrix" in="SourceGraphic" values="0 0 0 0 1 0 0 0 0 1 0 0 0 0 1 0 0 0 1 0"/>
</filter>
<mask id="mask0">
  <g filter="url(#alpha)">
<rect x="0" y="0" width="13" height="15" style="fill:rgb(0%,0%,0%);fill-opacity:0.2;stroke:none;"/>
  </g>
</mask>
<clipPath id="clip1">
  <rect x="0" y="0" width="13" height="15"/>
</clipPath>
<g id="surface5" clip-path="url(#clip1)">
<path style=" stroke:none;fill-rule:nonzero;fill:rgb(100%,100%,100%);fill-opacity:1;" d="M 7.632812 2.082031 C 7.632812 2 7.5625 1.929688 7.472656 1.929688 C 7.386719 1.929688 7.3125 2 7.3125 2.082031 C 7.3125 2.164062 7.386719 2.234375 7.472656 2.234375 C 7.5625 2.234375 7.632812 2.164062 7.632812 2.082031 Z M 7.632812 2.082031 "/>
</g>
<mask id="mask1">
  <g filter="url(#alpha)">
<rect x="0" y="0" width="13" height="15" style="fill:rgb(0%,0%,0%);fill-opacity:0.501961;stroke:none;"/>
  </g>
</mask>
<clipPath id="clip2">
  <rect x="0" y="0" width="13" height="15"/>
</clipPath>
<g id="surface8" clip-path="url(#clip2)">
<path style=" stroke:none;fill-rule:nonzero;fill:rgb(44.313726%,2.352941%,71.372551%);fill-opacity:1;" d="M 1.054688 11.300781 L 6.722656 13.769531 L 6.777344 14.976562 L 0.832031 12.054688 Z M 1.054688 11.300781 "/>
</g>
<mask id="mask2">
  <g filter="url(#alpha)">
<rect x="0" y="0" width="13" height="15" style="fill:rgb(0%,0%,0%);fill-opacity:0.501961;stroke:none;"/>
  </g>
</mask>
<clipPath id="clip3">
  <rect x="0" y="0" width="13" height="15"/>
</clipPath>
<g id="surface11" clip-path="url(#clip3)">
<path style=" stroke:none;fill-rule:nonzero;fill:rgb(44.313726%,2.352941%,71.372551%);fill-opacity:1;" d="M 12.1875 9.636719 L 6.722656 13.769531 L 6.777344 14.976562 L 12.1875 10.644531 Z M 12.1875 9.636719 "/>
</g>
<mask id="mask3">
  <g filter="url(#alpha)">
<rect x="0" y="0" width="13" height="15" style="fill:rgb(0%,0%,0%);fill-opacity:0.301961;stroke:none;"/>
  </g>
</mask>
<clipPath id="clip4">
  <rect x="0" y="0" width="13" height="15"/>
</clipPath>
<g id="surface14" clip-path="url(#clip4)">
<path style=" stroke:none;fill-rule:nonzero;fill:rgb(85.882354%,85.882354%,85.882354%);fill-opacity:1;" d="M 7.699219 1.433594 C 7.699219 1.238281 7.53125 1.082031 7.324219 1.082031 C 7.117188 1.082031 6.949219 1.238281 6.949219 1.433594 C 6.949219 1.628906 7.117188 1.785156 7.324219 1.785156 C 7.53125 1.785156 7.699219 1.628906 7.699219 1.433594 Z M 7.699219 1.433594 "/>
</g>
</defs>
<g id="surface1">
<path style=" stroke:none;fill-rule:nonzero;fill:rgb(0%,0%,0%);fill-opacity:1;" d="M 4.003906 6.675781 L 6.378906 5.042969 L 11.992188 7.628906 L 9.253906 9.78125 L 6.691406 11.601562 L 0.929688 8.933594 Z M 4.003906 6.675781 "/>
<path style=" stroke:none;fill-rule:nonzero;fill:rgb(0%,0%,0%);fill-opacity:1;" d="M 0.828125 9.191406 L 6.617188 11.765625 L 6.617188 13.625 L 0.828125 11.085938 Z M 0.828125 9.191406 "/>
<path style=" stroke:none;fill-rule:nonzero;fill:rgb(0%,0%,0%);fill-opacity:1;" d="M 6.777344 11.742188 L 12.054688 7.652344 L 12.054688 9.558594 L 11.253906 10.144531 L 6.804688 13.578125 Z M 6.777344 11.742188 "/>
<path style="fill:none;stroke-width:5;stroke-linecap:butt;stroke-linejoin:miter;stroke:rgb(100%,100%,100%);stroke-opacity:1;stroke-miterlimit:4;" d="M 354.21875 350.235417 C 354.21875 398.417708 312.34375 437.794271 260.3125 437.794271 C 234.375 437.794271 208.59375 427.991667 189.53125 412.041667 C 170.3125 396.091667 157.96875 374.160417 157.96875 350.235417 C 157.96875 326.310417 170.3125 304.545312 189.53125 288.595312 C 208.59375 272.645312 234.375 262.842708 260.3125 262.842708 C 312.34375 262.842708 354.21875 302.219271 354.21875 350.235417 Z M 354.21875 350.235417 " transform="matrix(0.025,0,0,0.023511,0,0)"/>
<path style="fill-rule:nonzero;fill:rgb(18.82353%,18.431373%,18.431373%);fill-opacity:1;stroke-width:5;stroke-linecap:butt;stroke-linejoin:miter;stroke:rgb(100%,100%,100%);stroke-opacity:1;stroke-miterlimit:4;" d="M 345.78125 339.269792 C 345.78125 380.141667 306.875 413.869271 258.28125 413.869271 C 209.53125 413.869271 170.78125 380.141667 170.78125 339.269792 C 170.78125 298.397917 209.53125 264.670312 258.28125 264.670312 C 306.875 264.670312 345.78125 298.397917 345.78125 339.269792 Z M 345.78125 339.269792 " transform="matrix(0.025,0,0,0.023511,0,0)"/>
<path style=" stroke:none;fill-rule:nonzero;fill:rgb(29.019609%,0%,50.588238%);fill-opacity:1;" d="M 7.207031 10.996094 C 7.207031 10.777344 6.988281 10.59375 6.722656 10.59375 C 6.457031 10.59375 6.242188 10.777344 6.242188 10.996094 C 6.242188 11.21875 6.457031 11.402344 6.722656 11.402344 C 6.988281 11.402344 7.207031 11.21875 7.207031 10.996094 Z M 7.207031 10.996094 "/>
<path style=" stroke:none;fill-rule:nonzero;fill:rgb(97.254902%,14.509805%,52.549022%);fill-opacity:1;" d="M 7.097656 10.996094 C 7.097656 10.832031 6.929688 10.695312 6.722656 10.695312 C 6.515625 10.695312 6.347656 10.832031 6.347656 10.996094 C 6.347656 11.164062 6.515625 11.300781 6.722656 11.300781 C 6.929688 11.300781 7.097656 11.164062 7.097656 10.996094 Z M 7.097656 10.996094 "/>
<path style=" stroke:none;fill-rule:nonzero;fill:rgb(85.09804%,85.09804%,85.09804%);fill-opacity:1;" d="M 0.671875 8.984375 L 4.261719 6.464844 L 4.472656 6.3125 L 4.6875 6.164062 L 1.421875 9.285156 L 1.046875 9.132812 Z M 0.671875 8.984375 "/>
<path style=" stroke:none;fill-rule:nonzero;fill:rgb(85.09804%,85.09804%,85.09804%);fill-opacity:1;" d="M 1.539062 8.421875 L 5.445312 10.980469 L 5.914062 11.285156 L 1.4375 9.28125 Z M 1.539062 8.421875 "/>
<path style=" stroke:none;fill-rule:nonzero;fill:rgb(29.019609%,0%,50.588238%);fill-opacity:1;" d="M 2.492188 8.933594 C 2.492188 9.15625 2.222656 9.289062 1.957031 9.289062 C 1.691406 9.289062 1.527344 9.15625 1.527344 8.933594 C 1.527344 8.710938 1.851562 8.578125 2.117188 8.578125 C 2.382812 8.578125 2.492188 8.710938 2.492188 8.933594 Z M 2.492188 8.933594 "/>
<path style=" stroke:none;fill-rule:nonzero;fill:rgb(97.254902%,14.509805%,52.549022%);fill-opacity:1;" d="M 2.386719 8.882812 C 2.386719 8.714844 2.21875 8.578125 2.011719 8.578125 C 1.804688 8.578125 1.636719 8.714844 1.636719 8.882812 C 1.636719 9.050781 1.804688 9.183594 2.011719 9.183594 C 2.21875 9.183594 2.386719 9.050781 2.386719 8.882812 Z M 2.386719 8.882812 "/>
<path style="fill-rule:nonzero;fill:rgb(78.823531%,0%,0%);fill-opacity:1;stroke-width:5;stroke-linecap:butt;stroke-linejoin:miter;stroke:rgb(100%,100%,100%);stroke-opacity:1;stroke-miterlimit:4;" d="M 253.90625 161.826042 C 300.15625 161.826042 337.8125 126.270833 337.8125 82.076042 C 337.8125 38.047396 300.15625 2.492188 253.90625 2.492188 C 207.8125 2.492188 170 38.047396 170 82.076042 C 170 126.270833 207.8125 161.826042 253.90625 161.826042 Z M 253.90625 161.826042 " transform="matrix(0.025,0,0,0.023511,0,0)"/>
<path style=" stroke:none;fill-rule:nonzero;fill:rgb(52.156866%,0%,0%);fill-opacity:1;" d="M 5.269531 1.667969 L 4.96875 1.195312 C 4.960938 1.183594 4.949219 1.175781 4.933594 1.171875 L 4.636719 1.132812 C 4.605469 1.128906 4.585938 1.101562 4.59375 1.074219 L 4.632812 0.933594 C 4.632812 0.925781 4.636719 0.921875 4.640625 0.914062 L 4.792969 0.726562 C 4.792969 0.722656 4.796875 0.722656 4.796875 0.71875 L 5.164062 0.375 C 5.167969 0.371094 5.171875 0.367188 5.179688 0.367188 L 5.804688 0.121094 C 5.808594 0.117188 5.816406 0.117188 5.824219 0.117188 L 6.664062 0.117188 C 6.667969 0.117188 6.671875 0.117188 6.675781 0.117188 L 7.144531 0.214844 C 7.148438 0.21875 7.15625 0.21875 7.160156 0.222656 L 7.789062 0.617188 C 7.792969 0.621094 7.796875 0.625 7.800781 0.628906 L 8.167969 1.074219 L 8.324219 1.320312 C 8.328125 1.324219 8.332031 1.328125 8.332031 1.335938 L 8.382812 1.613281 C 8.382812 1.625 8.382812 1.632812 8.375 1.640625 L 8.117188 2.132812 C 8.042969 2.265625 7.667969 2.535156 7.582031 2.535156 L 7.277344 2.535156 C 7.265625 2.535156 7.253906 2.539062 7.246094 2.546875 L 6.792969 2.925781 C 6.785156 2.933594 6.769531 2.9375 6.753906 2.9375 L 6.339844 2.894531 C 6.3125 2.890625 6.296875 2.871094 6.296875 2.847656 L 6.296875 2.566406 C 6.296875 2.546875 6.285156 2.53125 6.265625 2.523438 L 5.84375 2.347656 C 5.824219 2.339844 5.8125 2.320312 5.8125 2.304688 L 5.8125 2.09375 C 5.8125 2.085938 5.8125 2.078125 5.804688 2.070312 L 5.660156 1.84375 C 5.65625 1.835938 5.648438 1.828125 5.636719 1.824219 L 5.292969 1.683594 C 5.28125 1.679688 5.273438 1.675781 5.269531 1.667969 Z M 5.269531 1.667969 "/>
<path style=" stroke:none;fill-rule:nonzero;fill:rgb(85.882354%,85.882354%,85.882354%);fill-opacity:1;" d="M 6.242188 1.074219 C 6.242188 0.824219 6 0.621094 5.707031 0.621094 C 5.410156 0.621094 5.171875 0.824219 5.171875 1.074219 C 5.171875 1.324219 5.410156 1.527344 5.707031 1.527344 C 6 1.527344 6.242188 1.324219 6.242188 1.074219 Z M 6.242188 1.074219 "/>
<path style=" stroke:none;fill-rule:nonzero;fill:rgb(85.882354%,85.882354%,85.882354%);fill-opacity:1;" d="M 6.457031 1.78125 C 6.457031 1.640625 6.335938 1.527344 6.1875 1.527344 C 6.039062 1.527344 5.921875 1.640625 5.921875 1.78125 C 5.921875 1.917969 6.039062 2.03125 6.1875 2.03125 C 6.335938 2.03125 6.457031 1.917969 6.457031 1.78125 Z M 6.457031 1.78125 "/>
<use xlink:href="#surface5" mask="url(#mask0)"/>
<path style=" stroke:none;fill-rule:nonzero;fill:rgb(85.09804%,85.09804%,85.09804%);fill-opacity:1;" d="M 1.421875 9.585938 L 2.222656 9.839844 L 2.597656 11.90625 L 1.527344 11.453125 Z M 1.421875 9.585938 "/>
<path style=" stroke:none;fill-rule:nonzero;fill:rgb(85.09804%,85.09804%,85.09804%);fill-opacity:1;" d="M 0.875 10.796875 L 3.820312 12.105469 L 6.671875 13.367188 L 6.671875 13.71875 L 0.875 11.148438 Z M 0.875 10.796875 "/>
<path style=" stroke:none;fill-rule:nonzero;fill:rgb(85.09804%,85.09804%,85.09804%);fill-opacity:1;" d="M 12.113281 9.507812 L 9.617188 11.371094 L 6.671875 13.617188 L 6.777344 13.667969 L 12.113281 9.621094 Z M 12.113281 9.507812 "/>
<path style=" stroke:none;fill-rule:nonzero;fill:rgb(85.09804%,85.09804%,85.09804%);fill-opacity:1;" d="M 3.511719 10.445312 L 4.097656 10.59375 L 4.261719 12.308594 L 3.777344 12.105469 Z M 3.511719 10.445312 "/>
<path style=" stroke:none;fill-rule:nonzero;fill:rgb(85.09804%,85.09804%,85.09804%);fill-opacity:1;" d="M 5.0625 11.199219 L 5.332031 11.199219 L 5.707031 12.960938 L 5.277344 12.761719 Z M 5.0625 11.199219 "/>
<path style=" stroke:none;fill-rule:nonzero;fill:rgb(85.09804%,85.09804%,85.09804%);fill-opacity:1;" d="M 5.707031 11.453125 L 6.5625 11.855469 L 6.5625 13.324219 L 5.8125 13.011719 Z M 5.707031 11.453125 "/>
<path style=" stroke:none;fill-rule:nonzero;fill:rgb(85.09804%,85.09804%,85.09804%);fill-opacity:1;" d="M 6.9375 11.753906 L 7.207031 11.804688 L 7.207031 13.316406 L 6.9375 13.464844 Z M 6.9375 11.753906 "/>
<use xlink:href="#surface8" mask="url(#mask1)"/>
<use xlink:href="#surface11" mask="url(#mask2)"/>
<path style="fill:none;stroke-width:5;stroke-linecap:butt;stroke-linejoin:miter;stroke:rgb(100%,100%,100%);stroke-opacity:1;stroke-miterlimit:4;" d="M 29.0625 382.135417 L 253.90625 208.513021 L 485.3125 324.150521 M 29.0625 382.135417 L 268.90625 497.772917 M 29.0625 382.135417 L 33.28125 474.180208 L 268.90625 584.501042 M 268.90625 497.772917 L 485.3125 324.150521 M 268.90625 497.772917 L 268.90625 584.501042 M 485.3125 324.150521 L 485.3125 409.881771 L 268.90625 584.501042 " transform="matrix(0.025,0,0,0.023511,0,0)"/>
<path style="fill-rule:nonzero;fill:rgb(44.313726%,44.313726%,44.313726%);fill-opacity:1;stroke-width:5;stroke-linecap:butt;stroke-linejoin:miter;stroke:rgb(100%,100%,100%);stroke-opacity:1;stroke-miterlimit:4;" d="M 238.59375 182.428125 L 273.59375 182.428125 L 273.59375 324.648958 L 238.59375 324.648958 Z M 238.59375 182.428125 " transform="matrix(0.025,0,0,0.023511,0,0)"/>
<path style="fill-rule:nonzero;fill:rgb(85.09804%,85.09804%,85.09804%);fill-opacity:1;stroke-width:5;stroke-linecap:butt;stroke-linejoin:miter;stroke:rgb(100%,100%,100%);stroke-opacity:1;stroke-miterlimit:4;" d="M 225.9375 152.521875 L 286.25 152.521875 C 288.75 152.521875 290.78125 154.515625 290.78125 157.007812 L 290.78125 182.926562 C 290.78125 185.41875 288.75 187.4125 286.25 187.4125 L 225.9375 187.4125 C 223.4375 187.4125 221.40625 185.41875 221.40625 182.926562 L 221.40625 157.007812 C 221.40625 154.515625 223.4375 152.521875 225.9375 152.521875 Z M 225.9375 152.521875 " transform="matrix(0.025,0,0,0.023511,0,0)"/>
<path style="fill-rule:nonzero;fill:rgb(44.313726%,44.313726%,44.313726%);fill-opacity:1;stroke-width:3;stroke-linecap:butt;stroke-linejoin:miter;stroke:rgb(100%,100%,100%);stroke-opacity:1;stroke-miterlimit:4;" d="M 202.5 313.517187 L 176.875 313.517187 L 172.5 322.156771 L 170.46875 330.630208 L 170.46875 345.583333 L 202.5 345.583333 L 221.875 365.022396 L 230.3125 377.815625 L 251.875 382.135417 L 258.28125 390.608854 L 258.28125 399.248437 L 245.3125 403.568229 L 223.90625 407.721875 L 260.3125 414.201562 L 298.90625 407.721875 L 324.6875 390.608854 L 339.6875 369.176042 L 346.09375 347.743229 L 348.28125 332.790104 L 341.71875 317.836979 L 333.28125 298.564062 L 326.71875 317.836979 L 318.28125 317.836979 L 307.5 324.150521 L 307.5 337.109896 L 298.90625 337.109896 L 273.28125 307.0375 L 239.0625 307.0375 L 215.3125 337.109896 L 208.90625 337.109896 Z M 202.5 313.517187 " transform="matrix(0.025,0,0,0.023511,0,0)"/>
<path style="fill-rule:nonzero;fill:rgb(100%,69.411767%,4.705882%);fill-opacity:1;stroke-width:1;stroke-linecap:butt;stroke-linejoin:miter;stroke:rgb(0%,0%,0%);stroke-opacity:1;stroke-miterlimit:4;" d="M 403.90625 101.348958 L 331.09375 195.719792 L 393.28125 142.054688 L 406.09375 197.879687 L 472.5 99.189062 L 416.71875 152.854167 Z M 403.90625 101.348958 " transform="matrix(0.025,0,0,0.023511,0,0)"/>
<path style="fill-rule:nonzero;fill:rgb(100%,69.411767%,4.705882%);fill-opacity:1;stroke-width:1;stroke-linecap:butt;stroke-linejoin:miter;stroke:rgb(0%,0%,0%);stroke-opacity:1;stroke-miterlimit:4;" d="M 78.28125 84.235937 L 166.09375 172.127083 L 106.09375 129.261458 L 112.34375 180.600521 L 1.09375 72.938021 L 82.5 125.440104 Z M 78.28125 84.235937 " transform="matrix(0.025,0,0,0.023511,0,0)"/>
<path style="fill-rule:nonzero;fill:rgb(100%,69.411767%,4.705882%);fill-opacity:1;stroke-width:1;stroke-linecap:butt;stroke-linejoin:miter;stroke:rgb(0%,0%,0%);stroke-opacity:1;stroke-miterlimit:4;" d="M 56.875 200.039583 L 144.6875 257.858333 L 86.875 234.265625 L 97.5 262.178125 L 16.09375 200.039583 L 69.6875 225.626042 Z M 56.875 200.039583 " transform="matrix(0.025,0,0,0.023511,0,0)"/>
<use xlink:href="#surface14" mask="url(#mask3)"/>
</g>
</svg>
